<?xml version="1.0" encoding="utf-8"?>
<!-- Generator: Adobe Illustrator 24.1.0, SVG Export Plug-In . SVG Version: 6.00 Build 0)  -->
<svg version="1.1" id="Layer_1" xmlns="http://www.w3.org/2000/svg" xmlns:xlink="http://www.w3.org/1999/xlink" x="0px" y="0px"
	 viewBox="0 0 639.3 97.2" style="enable-background:new 0 0 639.3 97.2;" xml:space="preserve">
<style type="text/css">
	.st0{fill:#FFFFFF;}
</style>
<g>
	<path class="st0" d="M5.6,21.6c0-8.8,7.2-16,16-16h54c8,0,14.6,5.9,15.8,13.5c0.2,1.4,1.4,2.5,2.8,2.5h0c1.7,0,3-1.6,2.8-3.3
		C95.4,8,86.4,0,75.6,0h-54C9.7,0,0,9.7,0,21.6v45.6C0,68.8,1.3,70,2.8,70h0c1.5,0,2.8-1.3,2.8-2.8V21.6z"/>
	<path class="st0" d="M91.6,75.6c0,8.8-7.2,16-16,16h-54c-8,0-14.6-5.9-15.8-13.5c-0.2-1.4-1.4-2.5-2.8-2.5h0c-1.7,0-3,1.6-2.8,3.3
		c1.6,10.4,10.6,18.3,21.4,18.3h54c11.9,0,21.6-9.7,21.6-21.6V30c0-1.5-1.3-2.8-2.8-2.8l0,0c-1.5,0-2.8,1.3-2.8,2.8V75.6z"/>
</g>
<g>
	<path class="st0" d="M28.9,46.2h-4.3V21.7c0-1.5-1.3-2.8-2.8-2.8c-1.5,0-2.8,1.3-2.8,2.8v24.5h-4c-1.5,0-2.8,1.3-2.8,2.8v18
		c0,1.5,1.3,2.8,2.8,2.8h4v5.7c0,1.5,1.3,2.8,2.8,2.8c1.5,0,2.8-1.3,2.8-2.8v-5.7h4.3c1.5,0,2.8-1.3,2.8-2.8V49
		C31.7,47.5,30.5,46.2,28.9,46.2z M26.1,64.2h-1.5H19h-1.2V51.8H19h5.6h1.5V64.2z"/>
	<path class="st0" d="M55.5,30h-4.2v-8.4c0-1.5-1.3-2.8-2.8-2.8s-2.8,1.3-2.8,2.8V30h-4.2c-1.5,0-2.8,1.3-2.8,2.8v18
		c0,1.5,1.3,2.8,2.8,2.8h4.2v21.9c0,1.5,1.3,2.8,2.8,2.8s2.8-1.3,2.8-2.8V53.7h4.2c1.5,0,2.8-1.3,2.8-2.8v-18
		C58.3,31.3,57.1,30,55.5,30z M52.7,48.1h-1.4h-5.6h-1.4V35.6h1.4h5.6h1.4V48.1z"/>
	<path class="st0" d="M82.3,36.8h-4.2V21.7c0-1.5-1.3-2.8-2.8-2.8c-1.5,0-2.8,1.3-2.8,2.8v15.1h-4.2c-1.5,0-2.8,1.3-2.8,2.8v18
		c0,1.5,1.3,2.8,2.8,2.8h4.2v15.1c0,1.5,1.3,2.8,2.8,2.8c1.5,0,2.8-1.3,2.8-2.8V60.4h4.2c1.5,0,2.8-1.3,2.8-2.8v-18
		C85.1,38.1,83.9,36.8,82.3,36.8z M79.5,54.8h-1.4h-5.6h-1.4V42.4h1.4h5.6h1.4V54.8z"/>
</g>
<g>
	<path class="st0" d="M153,33.6h-14v40.3h-5.3V33.6h-14v-4.8H153V33.6z"/>
	<path class="st0" d="M167.6,46.7c-1.3-0.4-2.5-0.6-3.7-0.6c-1.8,0-3.3,0.5-4.4,1.5c-1.1,1-1.7,2.3-2,3.8v22.5h-5.2V41.7h3.6l1,3.9
		h0.3c0.8-1.5,1.8-2.6,2.9-3.4c1.1-0.8,2.6-1.2,4.3-1.2c1.2,0,2.6,0.2,4.2,0.6L167.6,46.7z"/>
	<path class="st0" d="M173.7,44.1c1.6-1,3.5-1.7,5.7-2.2c2.2-0.5,4.4-0.7,6.8-0.7c2.2,0,4,0.3,5.4,0.9c1.4,0.6,2.4,1.4,3.1,2.4
		c0.7,1,1.2,2,1.4,3.2c0.2,1.2,0.4,2.3,0.4,3.5c0,2.6-0.1,5.1-0.2,7.5c-0.1,2.4-0.2,4.8-0.2,7c0,1.6,0.1,3.1,0.2,4.5
		c0.1,1.4,0.4,2.7,0.7,3.9h-3.8l-1.4-4.5h-0.3c-0.4,0.6-0.9,1.2-1.4,1.8c-0.6,0.6-1.3,1.1-2.1,1.5c-0.8,0.5-1.8,0.8-2.8,1.1
		c-1.1,0.3-2.3,0.5-3.7,0.5c-1.4,0-2.7-0.2-3.8-0.6c-1.2-0.4-2.2-1-3.1-1.8c-0.9-0.8-1.5-1.7-2-2.9c-0.5-1.1-0.7-2.4-0.7-3.8
		c0-1.9,0.4-3.5,1.2-4.7c0.8-1.3,1.9-2.3,3.3-3s3.1-1.3,5-1.6c2-0.3,4.1-0.5,6.5-0.5c0.6,0,1.2,0,1.8,0c0.6,0,1.2,0,1.8,0.1
		c0.1-1.3,0.2-2.4,0.2-3.5c0-2.4-0.5-4-1.4-5c-0.9-0.9-2.7-1.4-5.2-1.4c-0.7,0-1.5,0.1-2.4,0.2c-0.8,0.1-1.7,0.3-2.6,0.5
		c-0.9,0.2-1.7,0.4-2.5,0.7c-0.8,0.3-1.5,0.6-2.1,1L173.7,44.1z M182.9,69.9c1.2,0,2.3-0.2,3.2-0.5c0.9-0.3,1.8-0.7,2.4-1.2
		c0.7-0.5,1.3-1,1.7-1.6c0.5-0.6,0.8-1.2,1-1.7v-5.3c-0.6,0-1.2-0.1-1.8-0.1c-0.6,0-1.2,0-1.8,0c-1.3,0-2.6,0.1-3.9,0.2
		c-1.3,0.2-2.4,0.4-3.3,0.8s-1.7,1-2.3,1.7c-0.6,0.7-0.9,1.6-0.9,2.7c0,1.5,0.5,2.7,1.6,3.7C179.8,69.4,181.2,69.9,182.9,69.9z"/>
	<path class="st0" d="M230.9,62.8c0,2.2,0,4.2,0.1,6c0,1.8,0.2,3.5,0.6,5.2h-3.5l-1.3-4.6h-0.3c-0.9,1.5-2.1,2.7-3.7,3.7
		s-3.5,1.5-5.7,1.5c-4.3,0-7.5-1.4-9.6-4.1c-2.1-2.7-3.1-6.9-3.1-12.7c0-5.5,1.3-9.7,3.9-12.5c2.6-2.9,6.2-4.3,10.7-4.3
		c1.6,0,2.8,0.1,3.8,0.3c0.9,0.2,1.9,0.4,3,0.8V28.8h5.2V62.8z M217.9,70.2c2.2,0,3.9-0.6,5.2-1.7c1.3-1.1,2.2-2.9,2.6-5.2v-16
		c-0.8-0.6-1.7-1-2.6-1.3c-1-0.3-2.3-0.4-3.9-0.4c-3,0-5.3,1-7,2.9c-1.7,2-2.5,5.1-2.5,9.4c0,1.8,0.1,3.4,0.4,4.9
		c0.3,1.5,0.7,2.8,1.4,3.9c0.6,1.1,1.5,1.9,2.5,2.5C215.1,69.9,216.4,70.2,217.9,70.2z"/>
	<path class="st0" d="M240.9,31.9c0-1,0.3-1.8,1-2.5s1.5-1.1,2.5-1.1c1,0,1.9,0.4,2.6,1.1c0.7,0.7,1.1,1.6,1.1,2.5
		c0,1-0.4,1.8-1.1,2.4c-0.7,0.6-1.6,1-2.6,1c-1,0-1.9-0.3-2.5-1C241.2,33.7,240.9,32.9,240.9,31.9z M241.9,41.7h5.2v32.2h-5.2V41.7z
		"/>
	<path class="st0" d="M278.8,73.9V55.6c0-3.3-0.5-5.9-1.4-7.6s-2.7-2.5-5.3-2.5c-2.3,0-4.2,0.6-5.6,1.8c-1.5,1.2-2.5,2.8-3.1,4.6v22
		h-5.2V41.7h3.6l1,3.9h0.3c1-1.4,2.4-2.5,4.2-3.4c1.7-0.9,3.8-1.3,6.2-1.3c1.8,0,3.3,0.2,4.6,0.6c1.3,0.4,2.4,1.1,3.3,2.2
		c0.9,1,1.5,2.4,2,4.2s0.7,3.9,0.7,6.6v19.5H278.8z"/>
	<path class="st0" d="M318,75.4c0,4.2-1.1,7.2-3.3,9.2c-2.2,2-5.5,3-9.8,3c-2.6,0-4.6-0.2-6.2-0.5c-1.6-0.3-2.9-0.7-4-1.3l1.4-4.4
		c1,0.4,2.1,0.8,3.3,1.1c1.2,0.3,2.8,0.5,4.7,0.5c1.8,0,3.3-0.2,4.4-0.5c1.1-0.3,2.1-0.9,2.7-1.6c0.7-0.8,1.2-1.7,1.4-2.9
		c0.3-1.2,0.4-2.6,0.4-4.2v-3.1h-0.3c-0.9,1.2-2,2.2-3.3,2.9c-1.3,0.7-3.1,1-5.2,1c-4.3,0-7.5-1.4-9.6-4.1c-2-2.7-3.1-6.9-3.1-12.6
		c0-5.5,1.3-9.7,3.9-12.5c2.6-2.9,6.5-4.3,11.6-4.3c2.4,0,4.5,0.2,6.3,0.6c1.7,0.4,3.3,0.8,4.7,1.4V75.4z M305.1,70.1
		c2.2,0,3.9-0.5,5.2-1.6c1.2-1.1,2.1-2.8,2.6-5.1V46.9c-1.7-0.8-3.9-1.2-6.6-1.2c-2.9,0-5.2,1-6.9,3s-2.5,5.1-2.5,9.3
		c0,1.8,0.2,3.5,0.5,5c0.3,1.5,0.8,2.8,1.4,3.9c0.6,1.1,1.5,1.9,2.5,2.5C302.3,69.8,303.6,70.1,305.1,70.1z"/>
	<path class="st0" d="M367.1,71.8c-1.3,0.9-2.8,1.7-4.6,2.2c-1.8,0.5-3.6,0.7-5.5,0.7c-2.5,0-4.6-0.4-6.3-1.2
		c-1.7-0.8-3.1-1.9-4.2-3.4c-1.1-1.5-1.9-3.3-2.4-5.3c-0.5-2.1-0.7-4.4-0.7-6.9c0-5.5,1.2-9.6,3.6-12.5c2.4-2.9,5.9-4.3,10.4-4.3
		c2.1,0,3.8,0.2,5.2,0.5c1.4,0.3,2.7,0.8,3.9,1.4l-1.5,4.4c-1-0.6-2.1-1-3.3-1.3c-1.2-0.3-2.5-0.5-3.9-0.5c-6.1,0-9.1,4.1-9.1,12.4
		c0,1.6,0.2,3.2,0.5,4.7c0.3,1.5,0.9,2.8,1.6,3.9c0.8,1.1,1.7,2.1,3,2.7c1.2,0.7,2.7,1,4.5,1c1.5,0,2.9-0.2,4.2-0.7
		c1.2-0.5,2.2-1,3-1.6L367.1,71.8z"/>
	<path class="st0" d="M370.9,57.8c0-5.5,1.2-9.6,3.6-12.5c2.4-2.9,5.9-4.3,10.5-4.3c2.4,0,4.5,0.4,6.3,1.2c1.8,0.8,3.3,1.9,4.4,3.4
		c1.2,1.5,2,3.3,2.6,5.3c0.6,2.1,0.8,4.4,0.8,6.9c0,5.5-1.2,9.6-3.6,12.5c-2.4,2.9-5.9,4.3-10.5,4.3c-2.4,0-4.5-0.4-6.3-1.2
		c-1.8-0.8-3.3-1.9-4.4-3.4c-1.2-1.5-2-3.3-2.6-5.3C371.2,62.7,370.9,60.3,370.9,57.8z M376.2,57.8c0,1.6,0.2,3.2,0.5,4.7
		c0.3,1.5,0.8,2.8,1.5,3.9c0.7,1.1,1.6,2,2.7,2.7c1.1,0.7,2.5,1,4.1,1c5.8,0,8.8-4.1,8.8-12.4c0-1.7-0.2-3.3-0.5-4.8
		c-0.3-1.5-0.8-2.8-1.5-3.9c-0.7-1.1-1.6-2-2.7-2.7c-1.1-0.7-2.5-1-4.1-1C379.2,45.4,376.2,49.5,376.2,57.8z"/>
	<path class="st0" d="M426.1,73.9V55.7c0-1.7-0.1-3.2-0.2-4.5c-0.2-1.3-0.4-2.3-0.9-3.2c-0.4-0.9-1-1.5-1.8-1.9
		c-0.8-0.4-1.8-0.6-3.1-0.6c-2,0-3.6,0.6-4.9,1.8c-1.3,1.2-2.2,2.7-2.7,4.5v22.2h-5.2V41.7h3.6l1,3.9h0.3c1.2-1.4,2.5-2.5,4-3.4
		c1.5-0.9,3.5-1.3,6-1.3c2.1,0,3.7,0.4,5.1,1.2s2.3,2.2,3.1,4.2c1-1.7,2.4-3,4.1-3.9c1.7-0.9,3.7-1.4,5.9-1.4c1.8,0,3.3,0.2,4.6,0.6
		c1.2,0.4,2.3,1.1,3.1,2.2c0.8,1,1.4,2.4,1.8,4.2c0.4,1.8,0.5,4,0.5,6.7v19.3H445V54.5c0-1.5-0.1-2.9-0.2-4
		c-0.2-1.1-0.5-2.1-0.9-2.8c-0.5-0.8-1.1-1.3-1.9-1.7c-0.8-0.4-1.8-0.5-3.1-0.5c-2.1,0-3.8,0.6-5,1.8c-1.2,1.2-2.1,2.9-2.6,5.2v21.5
		H426.1z"/>
	<path class="st0" d="M477.2,28.8c0.8-0.1,1.7-0.2,2.7-0.3c1-0.1,2.1-0.1,3.2-0.1c1.1,0,2.2,0,3.2-0.1s2,0,2.9,0
		c3.6,0,6.7,0.6,9.4,1.7c2.6,1.1,4.8,2.7,6.5,4.7c1.7,2,3,4.4,3.8,7.2c0.8,2.8,1.3,5.9,1.3,9.2c0,3-0.4,6-1.2,8.8
		c-0.8,2.8-2.1,5.3-3.8,7.5c-1.7,2.2-4,3.9-6.7,5.2c-2.7,1.3-6.1,2-10,2c-0.7,0-1.6,0-2.7,0c-1.1,0-2.2-0.1-3.4-0.1
		c-1.2-0.1-2.2-0.1-3.2-0.2c-1,0-1.7-0.1-2.1-0.2V28.8z M489.4,33.1c-0.6,0-1.2,0-1.8,0c-0.7,0-1.3,0-2,0.1c-0.6,0-1.2,0.1-1.8,0.1
		c-0.5,0-1,0.1-1.3,0.1v36.1c0.2,0,0.6,0.1,1.2,0.1s1.2,0,1.9,0.1c0.6,0,1.3,0,1.9,0.1c0.6,0,1,0,1.2,0c3,0,5.5-0.5,7.6-1.5
		c2-1,3.7-2.4,4.9-4.2c1.2-1.7,2.1-3.7,2.6-6c0.5-2.3,0.8-4.6,0.8-7c0-2.1-0.2-4.2-0.7-6.3c-0.5-2.1-1.3-4-2.4-5.8
		c-1.2-1.7-2.7-3.1-4.7-4.2C494.8,33.6,492.4,33.1,489.4,33.1z"/>
	<path class="st0" d="M518.3,44.1c1.6-1,3.5-1.7,5.7-2.2c2.2-0.5,4.4-0.7,6.8-0.7c2.2,0,4,0.3,5.4,0.9c1.4,0.6,2.4,1.4,3.1,2.4
		c0.7,1,1.2,2,1.4,3.2c0.2,1.2,0.4,2.3,0.4,3.5c0,2.6-0.1,5.1-0.2,7.5c-0.1,2.4-0.2,4.8-0.2,7c0,1.6,0.1,3.1,0.2,4.5
		c0.1,1.4,0.4,2.7,0.7,3.9h-3.8l-1.4-4.5h-0.3c-0.4,0.6-0.9,1.2-1.4,1.8c-0.6,0.6-1.3,1.1-2.1,1.5c-0.8,0.5-1.8,0.8-2.8,1.1
		c-1.1,0.3-2.3,0.5-3.7,0.5c-1.4,0-2.7-0.2-3.8-0.6c-1.2-0.4-2.2-1-3.1-1.8c-0.9-0.8-1.5-1.7-2-2.9s-0.7-2.4-0.7-3.8
		c0-1.9,0.4-3.5,1.2-4.7c0.8-1.3,1.9-2.3,3.3-3c1.4-0.8,3.1-1.3,5-1.6c2-0.3,4.1-0.5,6.5-0.5c0.6,0,1.2,0,1.8,0c0.6,0,1.2,0,1.8,0.1
		c0.1-1.3,0.2-2.4,0.2-3.5c0-2.4-0.5-4-1.4-5c-0.9-0.9-2.7-1.4-5.2-1.4c-0.7,0-1.5,0.1-2.4,0.2c-0.8,0.1-1.7,0.3-2.6,0.5
		c-0.9,0.2-1.7,0.4-2.5,0.7c-0.8,0.3-1.5,0.6-2.1,1L518.3,44.1z M527.5,69.9c1.2,0,2.3-0.2,3.2-0.5c0.9-0.3,1.8-0.7,2.4-1.2
		c0.7-0.5,1.3-1,1.7-1.6c0.5-0.6,0.8-1.2,1-1.7v-5.3c-0.6,0-1.2-0.1-1.8-0.1c-0.6,0-1.2,0-1.8,0c-1.3,0-2.6,0.1-3.9,0.2
		c-1.3,0.2-2.4,0.4-3.3,0.8c-1,0.4-1.7,1-2.3,1.7c-0.6,0.7-0.9,1.6-0.9,2.7c0,1.5,0.5,2.7,1.6,3.7C524.4,69.4,525.8,69.9,527.5,69.9
		z"/>
	<path class="st0" d="M575.5,62.8c0,2.2,0,4.2,0.1,6c0,1.8,0.2,3.5,0.6,5.2h-3.5l-1.3-4.6h-0.3c-0.9,1.5-2.1,2.7-3.7,3.7
		s-3.5,1.5-5.7,1.5c-4.3,0-7.5-1.4-9.6-4.1c-2.1-2.7-3.1-6.9-3.1-12.7c0-5.5,1.3-9.7,3.9-12.5c2.6-2.9,6.2-4.3,10.7-4.3
		c1.6,0,2.8,0.1,3.8,0.3c0.9,0.2,1.9,0.4,3,0.8V28.8h5.2V62.8z M562.5,70.2c2.2,0,3.9-0.6,5.2-1.7c1.3-1.1,2.2-2.9,2.6-5.2v-16
		c-0.8-0.6-1.7-1-2.6-1.3c-1-0.3-2.3-0.4-3.9-0.4c-3,0-5.3,1-7,2.9c-1.7,2-2.5,5.1-2.5,9.4c0,1.8,0.1,3.4,0.4,4.9
		c0.3,1.5,0.7,2.8,1.4,3.9c0.6,1.1,1.5,1.9,2.5,2.5C559.7,69.9,561,70.2,562.5,70.2z"/>
	<path class="st0" d="M583.6,57.8c0-5.5,1.2-9.6,3.6-12.5c2.4-2.9,5.9-4.3,10.5-4.3c2.4,0,4.5,0.4,6.3,1.2c1.8,0.8,3.3,1.9,4.4,3.4
		c1.2,1.5,2,3.3,2.6,5.3c0.6,2.1,0.8,4.4,0.8,6.9c0,5.5-1.2,9.6-3.6,12.5c-2.4,2.9-5.9,4.3-10.5,4.3c-2.4,0-4.5-0.4-6.3-1.2
		c-1.8-0.8-3.3-1.9-4.4-3.4c-1.2-1.5-2-3.3-2.6-5.3C583.9,62.7,583.6,60.3,583.6,57.8z M589,57.8c0,1.6,0.2,3.2,0.5,4.7
		c0.3,1.5,0.8,2.8,1.5,3.9c0.7,1.1,1.6,2,2.7,2.7c1.1,0.7,2.5,1,4.1,1c5.8,0,8.8-4.1,8.8-12.4c0-1.7-0.2-3.3-0.5-4.8
		c-0.3-1.5-0.8-2.8-1.5-3.9c-0.7-1.1-1.6-2-2.7-2.7c-1.1-0.7-2.5-1-4.1-1C591.9,45.4,589,49.5,589,57.8z"/>
	<path class="st0" d="M634.1,65.2c0-1.3-0.4-2.3-1.2-3c-0.8-0.7-1.7-1.3-2.9-1.8c-1.1-0.5-2.4-1-3.7-1.4c-1.4-0.4-2.6-1-3.7-1.7
		c-1.1-0.7-2.1-1.6-2.9-2.7c-0.8-1.1-1.2-2.6-1.2-4.5c0-3.1,0.9-5.4,2.6-6.8c1.8-1.4,4.2-2.2,7.3-2.2c2.3,0,4.3,0.2,5.8,0.6
		c1.6,0.4,2.9,0.9,4.1,1.4l-1.2,4.3c-1-0.5-2.2-0.9-3.6-1.3c-1.4-0.4-2.9-0.5-4.5-0.5c-1.9,0-3.3,0.3-4.2,1
		c-0.9,0.6-1.3,1.8-1.3,3.3c0,1.1,0.4,2,1.2,2.6c0.8,0.6,1.7,1.2,2.9,1.7c1.1,0.5,2.4,1,3.7,1.4c1.4,0.5,2.6,1.1,3.7,1.9
		c1.1,0.8,2.1,1.8,2.9,2.9c0.8,1.2,1.2,2.7,1.2,4.7c0,1.4-0.2,2.7-0.7,3.9c-0.4,1.2-1.1,2.2-2.1,3.1c-0.9,0.9-2.1,1.5-3.5,2
		c-1.4,0.5-3,0.7-4.9,0.7c-2.4,0-4.5-0.2-6.2-0.7c-1.7-0.5-3.2-1-4.3-1.7l1.5-4.4c1,0.6,2.3,1.1,3.9,1.5c1.6,0.5,3.2,0.7,4.8,0.7
		c1.8,0,3.4-0.4,4.6-1.1S634.1,67,634.1,65.2z"/>
</g>
</svg>
